<?xml version="1.0" encoding="UTF-8"?>
<svg xmlns="http://www.w3.org/2000/svg" viewBox="0 0 1100 375">
  <g>
    <rect x="30.89" y="3.19" width="52.85" height="105.75" transform="translate(-22.85 56.97) rotate(-45.01)"/>
    <rect x="292.62" y="264.8" width="52.85" height="105.75" transform="translate(-131.18 318.54) rotate(-44.99)"/>
    <path d="M263.22,149.19l111.87-111.81L337.71,0l-111.87,111.81c-30.51-14.94-68.39-9.81-93.79,15.53-25.35,25.34-30.48,63.17-15.56,93.68L-.16,337.64l37.38,37.36,116.62-116.56c30.52,14.98,68.44,9.86,93.85-15.5,25.41-25.36,30.51-63.22,15.53-93.75ZM206.83,202.1c-9.38,9.37-24.59,9.37-33.97,0-9.38-9.37-9.38-24.58,0-33.95,9.38-9.37,24.59-9.37,33.97,0,9.38,9.37,9.38,24.58,0,33.95Z"/>
  </g>
  <g>
    <path d="M675.8,238.67c0,40.11-27.67,69.84-96.85,69.84h-100.31V66.5h86.82c70.57,0,97.2,23.16,97.2,61.88,0,28.01-16.25,43.22-41.51,49.44,37.36,7.26,54.65,28.35,54.65,60.85ZM531.56,108.33v55.32h43.59c19.02,0,33.9-7.95,33.9-28.35s-14.53-26.97-39.78-26.97h-37.71ZM621.15,234.87c0-28.35-22.14-33.88-40.82-33.88h-48.77v65.69h49.47c23.17,0,40.12-9.68,40.12-31.8Z"/>
    <path d="M890.24,147.05c0,50.48-31.82,81.59-96.5,81.59h-39.44v79.86h-52.92V66.5h91.66c68.14,0,97.2,34.57,97.2,80.55ZM835.93,146.7c0-22.47-14.18-36.65-38.74-36.65h-42.9v76.06h41.51c22.14,0,40.12-9.33,40.12-39.41Z"/>
    <path d="M1032.74,270.48h-91.32l-11.07,38.03h-53.96l78.52-242.01h66.41l78.52,242.01h-56.04l-11.07-38.03ZM953.18,228.3h67.8l-33.9-121.35-33.9,121.35Z"/>
  </g>
</svg>